# xmcd
# 
# Track frame offsets:
#   300
#   16202
#   36365
#   49471
#   68593
#   85622
#   103499
# 
# Disc length: 1629 seconds
# 
# Revision: 0
# Processed by: cddbd v1.5.2PL0 Copyright (c) Steve Scherf et al.
# Submitted via: Synapstar 1.0 
# 
DISCID=5a065907
DTITLE=Various Artist - New Mix Karaoke
DYEAR=1900
DGENRE=Country
TTITLE0=Jason Aldean - Big Green Tractor
TTITLE1=Zac Brown Band - Toes
TTITLE2=Rodney Atkins - 15 Minutes
TTITLE3=Gary Allan - Best I Ever Had
TTITLE4=Kevin Denney - Thats Just Jessie
TTITLE5=Pink - So What
TTITLE6=Miley Cyrus - The Climb
EXTD=MediaType: Karaoke CD+G Producer: Arcturus Media
EXTT0=
EXTT1=
EXTT2=
EXTT3=
EXTT4=
EXTT5=
EXTT6=
PLAYORDER=
